<?xml version="1.0" encoding="UTF-8" standalone="no"?>
<!-- Created with Inkscape (http://www.inkscape.org/) -->

<svg
   width="210mm"
   height="297mm"
   viewBox="0 0 210 297"
   version="1.1"
   id="svg1"
   inkscape:version="1.4.3 (0d15f75, 2025-12-25)"
   sodipodi:docname="LogoCaridad.svg"
   xmlns:inkscape="http://www.inkscape.org/namespaces/inkscape"
   xmlns:sodipodi="http://sodipodi.sourceforge.net/DTD/sodipodi-0.dtd"
   xmlns="http://www.w3.org/2000/svg"
   xmlns:svg="http://www.w3.org/2000/svg">
  <sodipodi:namedview
     id="namedview1"
     pagecolor="#ffffff"
     bordercolor="#000000"
     borderopacity="0.25"
     inkscape:showpageshadow="2"
     inkscape:pageopacity="0.0"
     inkscape:pagecheckerboard="0"
     inkscape:deskcolor="#d1d1d1"
     inkscape:document-units="mm"
     inkscape:zoom="2.7153199"
     inkscape:cx="558.86602"
     inkscape:cy="556.47219"
     inkscape:window-width="1920"
     inkscape:window-height="991"
     inkscape:window-x="-9"
     inkscape:window-y="-9"
     inkscape:window-maximized="1"
     inkscape:current-layer="layer1" />
  <defs
     id="defs1" />
  <g
     inkscape:label="Capa 1"
     inkscape:groupmode="layer"
     id="layer1">
    <path
       id="path175"
       d="m 143.40416,159.29458 v -1.05304 c 0,-0.78035 0.59549,-1.21497 1.31621,-1.21497 0.6283,0 1.25625,0.35102 1.25625,1.0855 v 0.10195 h -0.58174 v -0.0462 c 0,-0.42969 -0.37429,-0.5962 -0.67451,-0.5962 -0.31397,0 -0.70626,0.16651 -0.70626,0.63747 v 1.05304 c 0,0.39723 0.34149,0.62372 0.72955,0.62372 0.29986,0 0.65122,-0.16652 0.65122,-0.59585 v -0.0466 h 0.58174 v 0.10195 c 0,0.73448 -0.60502,1.0855 -1.23296,1.0855 -0.71579,0 -1.3395,-0.40182 -1.3395,-1.1363"
       style="fill:#323234;fill-opacity:1;fill-rule:nonzero;stroke:none;stroke-width:0.352778" />
    <path
       id="path176"
       d="m 147.85488,159.50233 v -0.11536 h -0.55386 c -0.24024,0 -0.39723,0.0829 -0.39723,0.29104 0,0.19862 0.16157,0.30022 0.42475,0.30022 0.45261,0 0.52634,-0.22155 0.52634,-0.4759 m -1.50107,0.2032 c 0,-0.4572 0.41593,-0.72954 0.87313,-0.72954 h 0.62794 v -0.21696 c 0,-0.24942 -0.16616,-0.3556 -0.45226,-0.3556 -0.24518,0 -0.4251,0.0829 -0.4251,0.2353 v 0.0833 h -0.508 v -0.0649 c 0,-0.51717 0.49424,-0.6925 0.93733,-0.6925 0.5267,0 1.01177,0.17533 1.01177,0.75248 v 1.15005 c 0,0.10654 0.0138,0.45755 0.0416,0.50835 h -0.55916 c -0.009,-0.037 -0.0183,-0.18026 -0.0233,-0.21731 h -0.009 c -0.20814,0.21731 -0.38805,0.26318 -0.69285,0.26318 -0.48966,0 -0.82233,-0.26741 -0.82233,-0.71579"
       style="fill:#323234;fill-opacity:1;fill-rule:nonzero;stroke:none;stroke-width:0.352778" />
    <path
       id="path177"
       d="m 148.97625,158.01061 h 0.54998 v 0.39264 h 0.009 c 0.13864,-0.24941 0.48966,-0.43885 0.77117,-0.43885 0.06,0 0.12947,0 0.18945,0.0137 v 0.51753 c -0.0737,-0.0141 -0.13406,-0.0141 -0.21273,-0.0141 -0.42474,0 -0.7433,0.24483 -0.7433,0.68368 v 1.21003 h -0.56374 z"
       style="fill:#323234;fill-opacity:1;fill-rule:nonzero;stroke:none;stroke-width:0.352778" />
    <path
       id="path178"
       d="m 150.88308,158.01072 h 0.56339 v 2.36467 h -0.56339 z m 0,-0.96097 h 0.56339 v 0.60043 h -0.56339 z"
       style="fill:#323234;fill-opacity:1;fill-rule:nonzero;stroke:none;stroke-width:0.352778" />
    <path
       id="path179"
       d="m 153.53375,159.47926 v -0.58173 c 0,-0.28646 -0.23072,-0.4572 -0.52176,-0.4572 -0.23565,0 -0.49459,0.12453 -0.49459,0.46637 v 0.58632 c 0,0.28681 0.22189,0.45261 0.51294,0.45261 0.2353,0 0.50341,-0.12453 0.50341,-0.46637 m -1.58891,0.0187 v -0.57291 c 0,-0.64206 0.44803,-0.96062 0.97472,-0.96062 0.26318,0 0.48013,0.13406 0.60043,0.29104 h 0.0138 v -1.17333 h 0.56339 v 3.29318 h -0.54963 v -0.26318 h -0.005 c -0.13405,0.18451 -0.45261,0.31856 -0.66498,0.31856 -0.51718,0 -0.9331,-0.32773 -0.9331,-0.93274"
       style="fill:#323234;fill-opacity:1;fill-rule:nonzero;stroke:none;stroke-width:0.352778" />
    <path
       id="path180"
       d="m 156.05417,159.50233 v -0.11536 h -0.55386 c -0.24024,0 -0.39723,0.0829 -0.39723,0.29104 0,0.19862 0.16157,0.30022 0.42475,0.30022 0.45261,0 0.52634,-0.22155 0.52634,-0.4759 m -1.50107,0.2032 c 0,-0.4572 0.41593,-0.72954 0.87313,-0.72954 h 0.62794 v -0.21696 c 0,-0.24942 -0.16616,-0.3556 -0.45226,-0.3556 -0.24518,0 -0.4251,0.0829 -0.4251,0.2353 v 0.0833 h -0.508 v -0.0649 c 0,-0.51717 0.49424,-0.6925 0.93733,-0.6925 0.5267,0 1.01177,0.17533 1.01177,0.75248 v 1.15005 c 0,0.10654 0.0138,0.45755 0.0416,0.50835 h -0.55916 c -0.009,-0.037 -0.0183,-0.18026 -0.0233,-0.21731 h -0.009 c -0.20814,0.21731 -0.38805,0.26318 -0.69285,0.26318 -0.48966,0 -0.82233,-0.26741 -0.82233,-0.71579"
       style="fill:#323234;fill-opacity:1;fill-rule:nonzero;stroke:none;stroke-width:0.352778" />
    <path
       id="path181"
       d="m 158.68141,159.47926 v -0.58173 c 0,-0.28646 -0.23072,-0.4572 -0.52176,-0.4572 -0.23565,0 -0.49459,0.12453 -0.49459,0.46637 v 0.58632 c 0,0.28681 0.22189,0.45261 0.51294,0.45261 0.2353,0 0.50341,-0.12453 0.50341,-0.46637 m -1.58891,0.0187 v -0.57291 c 0,-0.64206 0.44803,-0.96062 0.97472,-0.96062 0.26318,0 0.48013,0.13406 0.60043,0.29104 h 0.0138 v -1.17333 h 0.56339 v 3.29318 h -0.54963 v -0.26318 h -0.005 c -0.13405,0.18451 -0.45261,0.31856 -0.66498,0.31856 -0.51718,0 -0.9331,-0.32773 -0.9331,-0.93274"
       style="fill:#323234;fill-opacity:1;fill-rule:nonzero;stroke:none;stroke-width:0.352778" />
    <path
       id="path182"
       d="m 161.03511,157.08217 h 2.21227 v 0.54046 h -1.59315 v 0.83149 h 1.36702 v 0.53552 h -1.36702 v 1.38571 h -0.61912 z"
       style="fill:#323234;fill-opacity:1;fill-rule:nonzero;stroke:none;stroke-width:0.352778" />
    <path
       id="path183"
       d="m 163.54657,158.01061 h 0.54998 v 0.39264 h 0.009 c 0.13864,-0.24941 0.48966,-0.43885 0.77117,-0.43885 0.06,0 0.12947,0 0.18945,0.0137 v 0.51753 c -0.0737,-0.0141 -0.13406,-0.0141 -0.21273,-0.0141 -0.42474,0 -0.7433,0.24483 -0.7433,0.68368 v 1.21003 h -0.56374 z"
       style="fill:#323234;fill-opacity:1;fill-rule:nonzero;stroke:none;stroke-width:0.352778" />
    <path
       id="path184"
       d="m 166.88523,158.96216 v -0.0649 c 0,-0.32315 -0.22648,-0.45261 -0.4572,-0.45261 -0.24059,0 -0.49883,0.12946 -0.49883,0.48506 v 0.0325 z m -1.5427,0.50341 v -0.46214 c 0,-0.66498 0.49883,-1.03434 1.0855,-1.03434 0.51259,0 1.02059,0.30021 1.02059,0.92816 v 0.4572 h -1.51942 v 0.12947 c 0,0.30021 0.24448,0.47554 0.54504,0.47554 0.18909,0 0.38806,-0.12453 0.51259,-0.30444 l 0.43427,0.24941 c -0.18486,0.36936 -0.5588,0.52634 -0.97473,0.52634 -0.58208,0 -1.10384,-0.31855 -1.10384,-0.9652"
       style="fill:#323234;fill-opacity:1;fill-rule:nonzero;stroke:none;stroke-width:0.352778" />
    <path
       id="path185"
       d="m 167.79853,159.96881 0.39723,-0.30021 c 0.14781,0.19402 0.38347,0.30938 0.65123,0.30938 0.23106,0 0.46637,-0.0783 0.46637,-0.29104 0,-0.1845 -0.12489,-0.22578 -0.44344,-0.28152 l -0.30939,-0.0554 c -0.3877,-0.0692 -0.64664,-0.25859 -0.64664,-0.61419 0,-0.49424 0.43427,-0.77576 0.93768,-0.77576 0.42475,0 0.7299,0.10584 0.92816,0.38771 l -0.40605,0.27693 c -0.13899,-0.16158 -0.29563,-0.23072 -0.52669,-0.23072 -0.22155,0 -0.38347,0.0829 -0.38347,0.26317 0,0.16616 0.2032,0.18944 0.44802,0.23566 l 0.3556,0.0691 c 0.40217,0.0787 0.63289,0.30516 0.63289,0.66076 0,0.54468 -0.5588,0.80327 -1.04387,0.80327 -0.42475,0 -0.82197,-0.11077 -1.05763,-0.4572"
       style="fill:#323234;fill-opacity:1;fill-rule:nonzero;stroke:none;stroke-width:0.352778" />
    <path
       id="path186"
       d="m 170.36545,158.01061 h 0.54963 v 0.29104 h 0.009 c 0.15699,-0.22613 0.4064,-0.33725 0.66957,-0.33725 0.53129,0 0.82691,0.33267 0.82691,0.89605 v 1.51483 h -0.56338 v -1.37195 c 0,-0.35525 -0.1524,-0.54469 -0.43921,-0.54469 -0.30939,0 -0.4893,0.18944 -0.4893,0.5909 v 1.32574 h -0.56339 z"
       style="fill:#323234;fill-opacity:1;fill-rule:nonzero;stroke:none;stroke-width:0.352778" />
    <path
       id="path187"
       d="m 174.43344,158.96216 v -0.0649 c 0,-0.32315 -0.22648,-0.45261 -0.4572,-0.45261 -0.24059,0 -0.49883,0.12946 -0.49883,0.48506 v 0.0325 z m -1.5427,0.50341 v -0.46214 c 0,-0.66498 0.49883,-1.03434 1.0855,-1.03434 0.51259,0 1.02059,0.30021 1.02059,0.92816 v 0.4572 h -1.51942 v 0.12947 c 0,0.30021 0.24448,0.47554 0.54504,0.47554 0.18909,0 0.38806,-0.12453 0.51259,-0.30444 l 0.43427,0.24941 c -0.18486,0.36936 -0.5588,0.52634 -0.97473,0.52634 -0.58208,0 -1.10384,-0.31855 -1.10384,-0.9652"
       style="fill:#323234;fill-opacity:1;fill-rule:nonzero;stroke:none;stroke-width:0.352778" />
    <path
       id="path188"
       d="m 176.98176,159.47926 v -0.58173 c 0,-0.28646 -0.23072,-0.4572 -0.52176,-0.4572 -0.23565,0 -0.49459,0.12453 -0.49459,0.46637 v 0.58632 c 0,0.28681 0.22189,0.45261 0.51294,0.45261 0.2353,0 0.50341,-0.12453 0.50341,-0.46637 m -1.58891,0.0187 v -0.57291 c 0,-0.64206 0.44803,-0.96062 0.97472,-0.96062 0.26318,0 0.48013,0.13406 0.60043,0.29104 h 0.0138 v -1.17333 h 0.56339 v 3.29318 h -0.54963 v -0.26318 h -0.005 c -0.13405,0.18451 -0.45261,0.31856 -0.66498,0.31856 -0.51718,0 -0.9331,-0.32773 -0.9331,-0.93274"
       style="fill:#323234;fill-opacity:1;fill-rule:nonzero;stroke:none;stroke-width:0.352778" />
    <path
       id="path189"
       d="m 179.50218,159.50233 v -0.11536 h -0.55386 c -0.24024,0 -0.39723,0.0829 -0.39723,0.29104 0,0.19862 0.16157,0.30022 0.42475,0.30022 0.45261,0 0.52634,-0.22155 0.52634,-0.4759 m -1.50107,0.2032 c 0,-0.4572 0.41593,-0.72954 0.87313,-0.72954 h 0.62794 v -0.21696 c 0,-0.24942 -0.16616,-0.3556 -0.45226,-0.3556 -0.24518,0 -0.4251,0.0829 -0.4251,0.2353 v 0.0833 h -0.508 v -0.0649 c 0,-0.51717 0.49424,-0.6925 0.93733,-0.6925 0.5267,0 1.01177,0.17533 1.01177,0.75248 v 1.15005 c 0,0.10654 0.0138,0.45755 0.0416,0.50835 h -0.55916 c -0.009,-0.037 -0.0183,-0.18026 -0.0233,-0.21731 h -0.009 c -0.20814,0.21731 -0.38805,0.26318 -0.69285,0.26318 -0.48966,0 -0.82233,-0.26741 -0.82233,-0.71579"
       style="fill:#323234;fill-opacity:1;fill-rule:nonzero;stroke:none;stroke-width:0.352778" />
    <path
       id="path190"
       d="m 148.48395,162.98707 c -0.25647,0 -0.45755,0.19791 -0.45755,0.45014 0,0.25259 0.20108,0.45227 0.45755,0.45227 0.12806,0 0.26,-0.0586 0.35701,-0.15205 l 0.12806,0.14287 c -0.12982,0.12806 -0.31503,0.21061 -0.49601,0.21061 -0.37535,0 -0.66604,-0.28398 -0.66604,-0.65193 0,-0.36407 0.29457,-0.64417 0.67345,-0.64417 0.18133,0 0.36266,0.0751 0.48684,0.1979 l -0.1263,0.15734 c -0.0935,-0.10054 -0.22719,-0.16298 -0.35701,-0.16298"
       style="fill:#89b6e1;fill-opacity:1;fill-rule:nonzero;stroke:none;stroke-width:0.352778" />
    <path
       id="path191"
       d="m 149.40999,163.44113 c 0,0.25435 0.21061,0.45544 0.46143,0.45544 0.25083,0 0.45579,-0.20109 0.45579,-0.45544 0,-0.25471 -0.20496,-0.45226 -0.45579,-0.45226 -0.25259,0 -0.46143,0.19755 -0.46143,0.45226 m 1.13841,0 c 0,0.36583 -0.29633,0.64982 -0.67874,0.64982 -0.38276,0 -0.6791,-0.28399 -0.6791,-0.64982 0,-0.36795 0.29634,-0.64629 0.6791,-0.64629 0.38241,0 0.67874,0.28011 0.67874,0.64629"
       style="fill:#89b6e1;fill-opacity:1;fill-rule:nonzero;stroke:none;stroke-width:0.352778" />
    <path
       id="path192"
       d="m 151.12633,162.80034 0.68615,0.9204 v -0.9204 h 0.21237 v 1.28129 h -0.21237 l -0.68227,-0.91899 v 0.91899 h -0.21625 v -1.28129 z"
       style="fill:#89b6e1;fill-opacity:1;fill-rule:nonzero;stroke:none;stroke-width:0.352778" />
    <path
       id="path193"
       d="m 152.9033,162.9943 c -0.12629,0 -0.20884,0.048 -0.20884,0.1337 0,0.28011 0.69179,0.12982 0.69003,0.59126 0,0.2286 -0.20108,0.36971 -0.48331,0.36971 -0.20108,0 -0.39123,-0.0825 -0.52317,-0.2032 l 0.0931,-0.18662 c 0.13194,0.12065 0.29668,0.18662 0.43391,0.18662 0.15029,0 0.23989,-0.0568 0.23989,-0.15558 0,-0.28575 -0.69179,-0.12629 -0.69179,-0.58173 0,-0.22013 0.18838,-0.35701 0.46672,-0.35701 0.16651,0 0.32914,0.0529 0.44803,0.13159 l -0.0896,0.1905 c -0.13899,-0.0843 -0.27834,-0.11924 -0.375,-0.11924"
       style="fill:#89b6e1;fill-opacity:1;fill-rule:nonzero;stroke:none;stroke-width:0.352778" />
    <path
       id="path194"
       d="m 154.30718,163.89657 c 0.20884,0 0.33867,-0.12771 0.33867,-0.34572 v -0.75036 h 0.2159 v 0.75036 c 0,0.33514 -0.21026,0.5401 -0.55633,0.5401 -0.34573,0 -0.55845,-0.20496 -0.55845,-0.5401 v -0.75036 h 0.2159 v 0.75036 c 0,0.2159 0.1337,0.34572 0.34431,0.34572"
       style="fill:#89b6e1;fill-opacity:1;fill-rule:nonzero;stroke:none;stroke-width:0.352778" />
    <path
       id="path195"
       d="m 155.52194,162.80034 v 1.0855 h 0.55421 v 0.19579 h -0.77011 v -1.28129 z"
       style="fill:#89b6e1;fill-opacity:1;fill-rule:nonzero;stroke:none;stroke-width:0.352778" />
    <path
       id="path196"
       d="m 157.29373,162.80034 v 0.19403 h -0.40605 v 1.08726 h -0.21625 v -1.08726 h -0.40428 v -0.19403 z"
       style="fill:#89b6e1;fill-opacity:1;fill-rule:nonzero;stroke:none;stroke-width:0.352778" />
    <path
       id="path197"
       d="m 158.23321,163.60027 -0.24165,-0.56903 -0.24166,0.56903 z m 0.0822,0.19226 h -0.64594 l -0.12241,0.28893 h -0.22543 l 0.56586,-1.28129 h 0.22119 l 0.55986,1.28129 h -0.23037 z"
       style="fill:#89b6e1;fill-opacity:1;fill-rule:nonzero;stroke:none;stroke-width:0.352778" />
    <path
       id="path198"
       d="m 160.62928,163.44282 c 0,-0.26176 -0.19579,-0.44838 -0.44838,-0.44838 h -0.30551 v 0.89323 h 0.31468 c 0.24906,0 0.43921,-0.18521 0.43921,-0.44485 m 0.21802,-0.002 c 0,0.36971 -0.28011,0.64064 -0.66781,0.64064 h -0.52 v -1.28129 h 0.52494 c 0.38453,0 0.66287,0.26882 0.66287,0.64065"
       style="fill:#89b6e1;fill-opacity:1;fill-rule:nonzero;stroke:none;stroke-width:0.352778" />
    <path
       id="path199"
       d="m 162.12788,162.80034 v 0.19403 h -0.69885 v 0.34784 h 0.62583 v 0.19226 h -0.62583 v 0.35313 h 0.72072 v 0.19403 h -0.93698 v -1.28129 z"
       style="fill:#89b6e1;fill-opacity:1;fill-rule:nonzero;stroke:none;stroke-width:0.352778" />
    <path
       id="path200"
       d="m 164.04473,163.24336 c 0,-0.16863 -0.11148,-0.24906 -0.30939,-0.24906 h -0.28539 v 0.50694 h 0.28539 c 0.19791,0 0.30939,-0.084 0.30939,-0.25788 m 0.20673,-0.006 c 0,0.28927 -0.18486,0.45755 -0.50694,0.45755 h -0.29457 v 0.38629 h -0.2159 v -1.28129 h 0.51047 c 0.32208,0 0.50694,0.1591 0.50694,0.43745"
       style="fill:#89b6e1;fill-opacity:1;fill-rule:nonzero;stroke:none;stroke-width:0.352778" />
    <path
       id="path201"
       d="m 165.00559,162.9943 c -0.12629,0 -0.20884,0.048 -0.20884,0.1337 0,0.28011 0.69179,0.12982 0.69003,0.59126 0,0.2286 -0.20108,0.36971 -0.48295,0.36971 -0.20144,0 -0.39159,-0.0825 -0.52353,-0.2032 l 0.0931,-0.18662 c 0.13194,0.12065 0.29668,0.18662 0.43391,0.18662 0.15029,0 0.23989,-0.0568 0.23989,-0.15558 0,-0.28575 -0.69179,-0.12629 -0.69179,-0.58173 0,-0.22013 0.18838,-0.35701 0.46672,-0.35701 0.16651,0 0.32914,0.0529 0.44803,0.13159 l -0.0896,0.1905 c -0.13899,-0.0843 -0.27834,-0.11924 -0.375,-0.11924"
       style="fill:#89b6e1;fill-opacity:1;fill-rule:nonzero;stroke:none;stroke-width:0.352778" />
    <path
       id="path202"
       d="m 166.09063,164.08167 h -0.2159 v -1.28129 h 0.2159 z"
       style="fill:#89b6e1;fill-opacity:1;fill-rule:nonzero;stroke:none;stroke-width:0.352778" />
    <path
       id="path203"
       d="m 167.13464,162.98707 c -0.25612,0 -0.45755,0.19791 -0.45755,0.45014 0,0.25259 0.20143,0.45227 0.45755,0.45227 0.12806,0 0.26,-0.0586 0.35701,-0.15205 l 0.12806,0.14287 c -0.12982,0.12806 -0.31503,0.21061 -0.49601,0.21061 -0.37535,0 -0.66604,-0.28398 -0.66604,-0.65193 0,-0.36407 0.29457,-0.64417 0.67345,-0.64417 0.18133,0 0.3623,0.0751 0.48684,0.1979 l -0.1263,0.15734 c -0.0935,-0.10054 -0.22719,-0.16298 -0.35701,-0.16298"
       style="fill:#89b6e1;fill-opacity:1;fill-rule:nonzero;stroke:none;stroke-width:0.352778" />
    <path
       id="path204"
       d="m 168.06104,163.44113 c 0,0.25435 0.21061,0.45544 0.46143,0.45544 0.25083,0 0.45579,-0.20109 0.45579,-0.45544 0,-0.25471 -0.20496,-0.45226 -0.45579,-0.45226 -0.25259,0 -0.46143,0.19755 -0.46143,0.45226 m 1.13841,0 c 0,0.36583 -0.29633,0.64982 -0.67874,0.64982 -0.38276,0 -0.6791,-0.28399 -0.6791,-0.64982 0,-0.36795 0.29634,-0.64629 0.6791,-0.64629 0.38241,0 0.67874,0.28011 0.67874,0.64629"
       style="fill:#89b6e1;fill-opacity:1;fill-rule:nonzero;stroke:none;stroke-width:0.352778" />
    <path
       id="path205"
       d="m 169.78118,162.80034 v 1.0855 h 0.55421 v 0.19579 h -0.77011 v -1.28129 z"
       style="fill:#89b6e1;fill-opacity:1;fill-rule:nonzero;stroke:none;stroke-width:0.352778" />
    <path
       id="path206"
       d="m 170.7916,163.44113 c 0,0.25435 0.21061,0.45544 0.46143,0.45544 0.25083,0 0.45579,-0.20109 0.45579,-0.45544 0,-0.25471 -0.20496,-0.45226 -0.45579,-0.45226 -0.25259,0 -0.46143,0.19755 -0.46143,0.45226 m 1.13841,0 c 0,0.36583 -0.29633,0.64982 -0.67874,0.64982 -0.38276,0 -0.6791,-0.28399 -0.6791,-0.64982 0,-0.36795 0.29634,-0.64629 0.6791,-0.64629 0.38241,0 0.67874,0.28011 0.67874,0.64629"
       style="fill:#89b6e1;fill-opacity:1;fill-rule:nonzero;stroke:none;stroke-width:0.352778" />
    <path
       id="path207"
       d="m 173.12086,163.45214 h 0.18874 v 0.47202 c -0.13018,0.0988 -0.32209,0.16686 -0.49777,0.16686 -0.37889,0 -0.67346,-0.28399 -0.67346,-0.64982 0,-0.36618 0.29845,-0.64628 0.68616,-0.64628 0.18309,0 0.36583,0.0695 0.49247,0.17956 l -0.12276,0.1591 c -0.0988,-0.0914 -0.23601,-0.1464 -0.36971,-0.1464 -0.26176,0 -0.46673,0.19932 -0.46673,0.45402 0,0.25577 0.20673,0.45544 0.46849,0.45544 0.0952,0 0.2032,-0.0328 0.29457,-0.0878 z"
       style="fill:#89b6e1;fill-opacity:1;fill-rule:nonzero;stroke:none;stroke-width:0.352778" />
    <path
       id="path208"
       d="m 173.96674,164.08167 h -0.2159 v -1.28129 h 0.2159 z m 0.17886,-1.60126 -0.22295,0.17886 h -0.18698 l 0.19403,-0.27058 z"
       style="fill:#89b6e1;fill-opacity:1;fill-rule:nonzero;stroke:none;stroke-width:0.352778" />
    <path
       id="path209"
       d="m 175.18447,163.60027 -0.24165,-0.56903 -0.24166,0.56903 z m 0.0822,0.19226 h -0.64594 l -0.12241,0.28893 h -0.22543 l 0.56586,-1.28129 h 0.22119 l 0.55986,1.28129 h -0.23037 z"
       style="fill:#89b6e1;fill-opacity:1;fill-rule:nonzero;stroke:none;stroke-width:0.352778" />
    <path
       id="path210"
       d="m 160.48873,147.41659 c 0.74824,0.51223 2.54141,1.54622 3.11291,0.15169 0.013,-0.0321 0.0607,-0.0219 0.0575,0.0131 -0.0289,0.31538 -0.20672,0.95744 -1.14582,1.22414 0,0 1.60055,0.0363 1.49578,-2.05952 -0.004,-0.0656 0.085,-0.0903 0.11218,-0.0307 0.37395,0.81703 1.13312,3.49885 -2.9658,6.64668 -0.0367,0.0279 -0.084,-0.0183 -0.0568,-0.0561 0.51929,-0.72672 1.74414,-2.99861 -0.66675,-5.8233 -0.0339,-0.0392 0.0138,-0.0956 0.0568,-0.066"
       style="fill:#343436;fill-opacity:1;fill-rule:evenodd;stroke:none;stroke-width:0.352778" />
    <path
       id="path211"
       d="m 161.94496,147.31464 c 0,-0.36124 0.29316,-0.6544 0.6544,-0.6544 0.3616,0 0.65476,0.29316 0.65476,0.6544 0,0.3616 -0.29316,0.65476 -0.65476,0.65476 -0.36124,0 -0.6544,-0.29316 -0.6544,-0.65476"
       style="fill:#343436;fill-opacity:1;fill-rule:evenodd;stroke:none;stroke-width:0.352778" />
    <path
       id="path212"
       d="m 161.92877,145.12456 c -1.62419,-1.25024 -0.0399,-2.42358 0.24342,-3.50626 0,0 1.96038,2.14771 -0.0328,3.38667 -0.40852,-0.37677 -0.81562,-1.07668 -0.28328,-2.21615 0,0 -0.97579,1.43192 0.0727,2.33574"
       style="fill:#89b6e1;fill-opacity:1;fill-rule:evenodd;stroke:none;stroke-width:0.352778" />
    <path
       id="path213"
       d="m 163.39707,145.96688 c -0.79234,-1.35502 0.66957,-1.73108 1.18286,-2.41759 0,0 0.77153,2.08845 -0.99906,2.39325 -0.18133,-0.38488 -0.26847,-0.99872 0.43744,-1.65382 0,0 -1.1049,0.73483 -0.62124,1.67816"
       style="fill:#89b6e1;fill-opacity:1;fill-rule:evenodd;stroke:none;stroke-width:0.352778" />
    <path
       id="path214"
       d="m 159.12962,146.3469 c -0.24659,-1.03082 -1.56386,-0.8696 -1.56386,-0.8696 0.96237,0.0377 1.2954,0.56057 1.40864,0.97085 -1.5427,0.9211 -2.31634,-1.16699 -2.31634,-1.16699 0.83644,0.18732 2.1911,-0.47872 2.47156,1.06574"
       style="fill:#89b6e1;fill-opacity:1;fill-rule:evenodd;stroke:none;stroke-width:0.352778" />
    <path
       id="path215"
       d="m 160.46083,145.14939 c 0.2988,-1.01671 -0.92392,-1.53247 -0.92392,-1.53247 0.81562,0.51153 0.8449,1.13101 0.73906,1.54305 -1.79669,0.0318 -1.42875,-2.16394 -1.42875,-2.16394 0.63218,0.57821 2.13854,0.67452 1.61361,2.15336"
       style="fill:#89b6e1;fill-opacity:1;fill-rule:evenodd;stroke:none;stroke-width:0.352778" />
    <path
       id="path216"
       d="m 161.39685,146.73135 c -0.0921,-0.74436 -1.03117,-0.73554 -1.03117,-0.73554 0.67381,0.10301 0.86678,0.49706 0.91405,0.79445 -1.15817,0.52564 -1.5367,-1.004 -1.5367,-1.004 0.57326,0.19791 1.57868,-0.16334 1.65382,0.94509"
       style="fill:#89b6e1;fill-opacity:1;fill-rule:evenodd;stroke:none;stroke-width:0.352778" />
    <path
       id="path217"
       d="m 158.49504,144.84173 c 0.10866,-0.70062 -0.74754,-0.93486 -0.74754,-0.93486 0.58597,0.26705 0.6597,0.67557 0.62548,0.95814 -1.18886,0.17886 -1.13771,-1.30951 -1.13771,-1.30951 0.47025,0.32773 1.47779,0.25894 1.25977,1.28623"
       style="fill:#89b6e1;fill-opacity:1;fill-rule:evenodd;stroke:none;stroke-width:0.352778" />
    <path
       id="path218"
       d="m 160.64445,143.37135 c 0.32985,-0.62759 -0.40428,-1.12677 -0.40428,-1.12677 0.46778,0.44309 0.40534,0.85337 0.28116,1.10948 -1.18251,-0.2159 -0.65193,-1.60796 -0.65193,-1.60796 0.33866,0.46285 1.31409,0.72426 0.77505,1.62525"
       style="fill:#89b6e1;fill-opacity:1;fill-rule:evenodd;stroke:none;stroke-width:0.352778" />
    <path
       id="path219"
       d="m 159.53616,147.34907 c -0.51823,-0.48401 -1.1938,0.0921 -1.1938,0.0921 0.55104,-0.33408 0.93028,-0.16545 1.14441,0.0219 -0.5207,1.08373 -1.72297,0.20355 -1.72297,0.20355 0.53587,-0.20426 1.04564,-1.07527 1.77236,-0.3175"
       style="fill:#89b6e1;fill-opacity:1;fill-rule:evenodd;stroke:none;stroke-width:0.352778" />
    <path
       id="path220"
       d="m 160.00708,148.25825 c -0.69956,-0.11465 -0.94121,0.73977 -0.94121,0.73977 0.27234,-0.5842 0.68121,-0.6544 0.96343,-0.61771 0.16899,1.19027 -1.31938,1.12677 -1.31938,1.12677 0.33231,-0.46743 0.27199,-1.47567 1.29716,-1.24883"
       style="fill:#89b6e1;fill-opacity:1;fill-rule:evenodd;stroke:none;stroke-width:0.352778" />
    <path
       id="path221"
       d="m 165.11961,146.13537 c -0.35137,-0.98989 0.65652,-1.0541 1.07985,-1.4411 0,0 0.24624,1.46932 -0.95603,1.44816 -0.0709,-0.27588 -0.0515,-0.69039 0.49425,-1.03223 0,0 -0.81774,0.34466 -0.61807,1.02517"
       style="fill:#89b6e1;fill-opacity:1;fill-rule:evenodd;stroke:none;stroke-width:0.352778" />
    <path
       id="path222"
       d="m 165.04246,146.87571 c 0.55104,-0.89394 1.23296,-0.14887 1.79987,-0.0617 0,0 -0.99095,1.11266 -1.7279,0.16263 0.17039,-0.22789 0.50588,-0.47272 1.11442,-0.26176 0,0 -0.78175,-0.42121 -1.18639,0.16087"
       style="fill:#89b6e1;fill-opacity:1;fill-rule:evenodd;stroke:none;stroke-width:0.352778" />
    <path
       id="path223"
       d="m 164.98386,147.8655 c 0.94791,-0.45191 1.11654,0.54363 1.54517,0.92428 0,0 -1.43546,0.39723 -1.53917,-0.80046 0.2667,-0.0991 0.68086,-0.12276 1.07773,0.38453 0,0 -0.42792,-0.77787 -1.08373,-0.50835"
       style="fill:#89b6e1;fill-opacity:1;fill-rule:evenodd;stroke:none;stroke-width:0.352778" />
    <path
       id="path224"
       d="m 165.36663,144.44588 c -0.35101,-0.98954 0.65652,-1.05375 1.08021,-1.4411 0,0 0.24588,1.46932 -0.95603,1.44851 -0.0713,-0.27623 -0.0519,-0.69039 0.49424,-1.03258 0,0 -0.81809,0.34466 -0.61842,1.02517"
       style="fill:#89b6e1;fill-opacity:1;fill-rule:evenodd;stroke:none;stroke-width:0.352778" />
    <path
       id="path225"
       d="m 163.75397,143.0782 c -0.80892,-0.66922 0.0229,-1.24178 0.18803,-1.7907 0,0 0.96485,1.13524 -0.078,1.7332 -0.2025,-0.20003 -0.39794,-0.56586 -0.10513,-1.13983 0,0 -0.52564,0.71579 -0.005,1.19733"
       style="fill:#89b6e1;fill-opacity:1;fill-rule:evenodd;stroke:none;stroke-width:0.352778" />
  </g>
</svg>
